<svg id="Layer_1" data-name="Layer 1" xmlns="http://www.w3.org/2000/svg" viewBox="0 0 157.87 44"><path d="M20.69,8.6a3.59,3.59,0,0,1-2.08-.71,4.93,4.93,0,0,1-.68-.69c-.23-.25-.36-.55-.57-.81a3.6,3.6,0,0,1-.63-1.92,4.82,4.82,0,0,1,.32-1.89,2.26,2.26,0,0,1,.11-.43,3.5,3.5,0,0,1,.32-.56,3.11,3.11,0,0,1,.31-.32c.12-.11.14-.21.31-.24.4-.05.3.32.16.53s-.09.19-.16.29a2,2,0,0,0-.34.52,4.88,4.88,0,0,0-.29,1,2.57,2.57,0,0,0-.13,1.12,5.62,5.62,0,0,0,.29,1c.13.32.37.52.51.83a1.87,1.87,0,0,0,.77.78c.16.08.34.13.5.22a4,4,0,0,0,.44.27c.32.13.79,0,1,.32.06.12.08.69-.18.66A0,0,0,0,0,20.69,8.6Z" transform="translate(-1.68 -0.5)" fill="#fff"/><path d="M21.89,6.76c-.17,0-.23-.24-.31-.34A1.13,1.13,0,0,1,21.42,6a3.58,3.58,0,0,1-.14-1.33,4.84,4.84,0,0,1,.58-2.29c.16-.22.21-.37.39-.58s.28-.2.35-.27.14-.17.22-.25.13-.15.15-.2.13-.09.17-.1c.22-.07.13-.39,0-.47s-.63.06-.75.15a5,5,0,0,0-1.1,1L21.14,2a2.91,2.91,0,0,0-.17.3,3.15,3.15,0,0,0-.24.67l-.08.27a10.13,10.13,0,0,0-.23,1.32,3.75,3.75,0,0,0,0,1.06,4.39,4.39,0,0,0,.13.52c.09.31.16.63.22,1a1.93,1.93,0,0,1,.05.42c.11-.16,0,.31.1.28s.48-.32.66-.4a2,2,0,0,1,.22-.08.61.61,0,0,1,.33,0s0-.25-.07-.3A.6.6,0,0,0,22,6.84S21.91,6.79,21.89,6.76Z" transform="translate(-1.68 -0.5)" fill="#fff"/><path d="M23.56,4.05A13.72,13.72,0,0,1,25,2.71c.25-.21.49-.43.76-.62a4.11,4.11,0,0,1,.83-.44c.34-.14.69-.25,1-.37a4.11,4.11,0,0,1,.46-.15.78.78,0,0,1,.22,0l.36,0c.22,0,.47.08.53.29a.81.81,0,0,1,0,.41.38.38,0,0,1-.24.27,2.54,2.54,0,0,1-.91.08,3.85,3.85,0,0,0-.87.18,6.26,6.26,0,0,0-1.59.85A4.76,4.76,0,0,0,24.4,4.39c-.16.25-.27.51-.42.76s-.14.26-.22.39a.55.55,0,0,0-.13.28.47.47,0,0,0,0,.17.57.57,0,0,1,0,.18c0,.06,0,.12,0,.17a1.46,1.46,0,0,1,.05.2c0,.09,0,.19,0,.27a.56.56,0,0,1,.07.18c0,.06,0,.17.1.17A9.12,9.12,0,0,0,22.84,7h-.27a.34.34,0,0,1-.2,0,.53.53,0,0,1-.27-.16c-.08-.11,0-.32,0-.45s.11-.32.18-.48a5.74,5.74,0,0,1,.5-1A6.58,6.58,0,0,1,23.56,4.05Z" transform="translate(-1.68 -0.5)" fill="#fff"/><path d="M24.64,6.36a6.82,6.82,0,0,1,.91-.54L26,5.57c.16-.1.32-.2.48-.28a10.12,10.12,0,0,1,1-.4,6.06,6.06,0,0,1,1.08-.26,10.32,10.32,0,0,1,1.1-.07,3.08,3.08,0,0,1,.53,0,2.75,2.75,0,0,1,.49.14,8,8,0,0,1,.9.34.76.76,0,0,1,.49.63c0,.14.41.85.31,1a1.05,1.05,0,0,1-1-.1,1.68,1.68,0,0,0-.52-.48,3.17,3.17,0,0,0-.82-.42,3.3,3.3,0,0,0-.95-.13,5.61,5.61,0,0,0-2,.59,6.88,6.88,0,0,0-1.79,1,3.69,3.69,0,0,0-.41.38.93.93,0,0,1-.33.26.44.44,0,0,1-.32,0c-.12-.07-.13-.2-.22-.29s-.18-.11-.16-.22A.91.91,0,0,1,24,6.93a1,1,0,0,1,.14-.21,2.61,2.61,0,0,1,.27-.19Z" transform="translate(-1.68 -0.5)" fill="#fff"/><path d="M25.5,8.78a3.32,3.32,0,0,1-1.34,4.31c-1.47.73-2.75-.17-3.48-1.82s-.62-3.43.84-4.16A3,3,0,0,1,25.5,8.78Z" transform="translate(-1.68 -0.5)" fill="#fff"/><path d="M14.63,26.61a7.12,7.12,0,0,0,.76.31l1.14.38a18.21,18.21,0,0,1,2.17.81,3.39,3.39,0,0,1,.75.47.79.79,0,0,1,.29.56,2.11,2.11,0,0,1-.18.86A8.09,8.09,0,0,1,19,31.13q-.45.77-1,1.5c-.27.4-.49.81-.77,1.2-.15.21-.3.43-.43.64a4.79,4.79,0,0,0-.7,1.5,1.57,1.57,0,0,0,.14,1,4.46,4.46,0,0,0,1.56,1.49,5.88,5.88,0,0,1,1.64,1.37,1.08,1.08,0,0,1,.23.69,2.47,2.47,0,0,1-.23.79A9.15,9.15,0,0,1,18,43.57a1.85,1.85,0,0,1-.14.14,2,2,0,0,1-.92.61c-.17,0-.43.1-.58,0s-.1-.24-.06-.36a2.81,2.81,0,0,1,.3-.6c.15-.24.32-.48.48-.7s.33-.46.49-.7a3.71,3.71,0,0,0,.35-.56.79.79,0,0,0,0-.62,2.77,2.77,0,0,0-.72-.91c-.61-.58-1.31-1-1.94-1.59-.33-.28-.68-.56-1-.87a1.73,1.73,0,0,1-.5-.81A1.8,1.8,0,0,1,14,35.51a6.59,6.59,0,0,1,.6-1c.22-.33.45-.67.65-1a3,3,0,0,0,.41-1.07.93.93,0,0,0-.23-.8,2.66,2.66,0,0,0-.79-.48,8.52,8.52,0,0,0-2.26-.67,3,3,0,0,0-.85,0,4.09,4.09,0,0,0-1,.29,6.89,6.89,0,0,0-2.12,1.37,2.68,2.68,0,0,0-.61.87,2.47,2.47,0,0,0,.09,1.47c.16.58.32,1.15.51,1.71s.41,1.18.64,1.76.44,1.16.65,1.75A5.86,5.86,0,0,1,10,40.84a1.8,1.8,0,0,1-.1.89,2.21,2.21,0,0,1-.54.75,8.8,8.8,0,0,1-1,.82l-.62.49a5.17,5.17,0,0,1-.78.54c-.15.08-.41.24-.58.13a.29.29,0,0,1-.1-.22,1.57,1.57,0,0,1,.08-.49,1.62,1.62,0,0,1,.5-.78c.43-.36,1-.52,1.39-.9a1.92,1.92,0,0,0,.24-2,16.55,16.55,0,0,0-1.29-3l-.35-.71c-.1-.19-.18-.39-.27-.58-.18-.35-.39-.68-.6-1S5.54,34,5.34,33.6a3.89,3.89,0,0,1-.43-1.15,1.36,1.36,0,0,1,.13-1,3.08,3.08,0,0,1,.82-.83,19.72,19.72,0,0,1,2.05-1.3c.83-.5,1.65-1,2.49-1.46.43-.23.87-.43,1.29-.67s.69-.43,1-.65a1.34,1.34,0,0,1,.79-.26A2.66,2.66,0,0,1,14.63,26.61Z" transform="translate(-1.68 -0.5)" fill="#fff"/><circle cx="2.48" cy="24.63" r="2.48" fill="#fff"/><text transform="translate(32.33 31.54)" font-size="28" fill="#f9f9f9" font-family="Roboto-BlackItalic, Roboto" font-weight="800" font-style="italic">dimba</text><text transform="translate(110.25 31.54)" font-size="28" fill="#ffa400" font-family="Roboto-BlackItalic, Roboto" font-weight="800" font-style="italic">tips</text></svg>