<?xml version="1.0" encoding="utf-8"?>
<!-- Generator: Adobe Illustrator 26.0.0, SVG Export Plug-In . SVG Version: 6.00 Build 0)  -->
<svg version="1.1" id="Layer_1" xmlns="http://www.w3.org/2000/svg" xmlns:xlink="http://www.w3.org/1999/xlink" x="0px" y="0px"
	 viewBox="0 0 134.1 45" style="enable-background:new 0 0 134.1 45;" xml:space="preserve">
<style type="text/css">
	.st0{fill:#FFFFFF;}
	.st1{fill:#F9F9F9;}
	.st2{font-family:'Okami';}
	.st3{font-size:24px;}
	.st4{letter-spacing:1;}
	.st5{fill:#FFA400;}
</style>
<g>
	<path class="st0" d="M22.7,8.6c-0.8,0-1.5-0.3-2.1-0.7c-0.3-0.2-0.5-0.5-0.7-0.7c-0.2-0.2-0.4-0.6-0.6-0.8
		c-0.4-0.5-0.5-1.3-0.6-1.9c-0.1-0.6,0.1-1.3,0.3-1.9c0-0.1,0-0.3,0.1-0.4c0.1-0.2,0.2-0.4,0.3-0.6c0.1-0.1,0.2-0.2,0.3-0.3
		c0.1-0.1,0.1-0.2,0.3-0.2c0.4-0.1,0.3,0.3,0.2,0.5c-0.1,0.1-0.1,0.2-0.2,0.3C20,2,19.9,2.2,19.8,2.4c-0.1,0.3-0.2,0.7-0.3,1
		c-0.1,0.4-0.2,0.8-0.1,1.1c0.1,0.3,0.2,0.7,0.3,1C19.8,5.8,20,6,20.1,6.3c0.1,0.3,0.5,0.6,0.8,0.8c0.2,0.1,0.3,0.1,0.5,0.2
		c0.2,0.1,0.3,0.2,0.4,0.3c0.3,0.1,0.8,0,1,0.3C22.9,8,22.9,8.6,22.7,8.6C22.6,8.6,22.7,8.6,22.7,8.6z"/>
	<path class="st0" d="M23.9,6.8c-0.2,0-0.2-0.2-0.3-0.3c-0.1-0.1-0.1-0.3-0.2-0.4c-0.1-0.6-0.2-0.8-0.1-1.3C23.4,4,23.4,3,23.9,2.4
		C24,2.2,24.1,2,24.2,1.8c0.1-0.1,0.3-0.2,0.3-0.3c0.1-0.1,0.1-0.2,0.2-0.2c0,0,0.1-0.1,0.2-0.2c0,0,0.1-0.1,0.2-0.1
		c0.2-0.1,0.1-0.4,0-0.5c-0.1-0.1-0.6,0.1-0.7,0.1c-0.4,0.3-0.8,0.6-1.1,1c-0.1,0.1-0.1,0.2-0.2,0.3C23.1,2.1,23,2.2,23,2.3
		c-0.1,0.2-0.2,0.4-0.2,0.7l-0.1,0.3c-0.1,0.4-0.2,1-0.2,1.3c0,0.4-0.1,0.7,0,1.1c0,0.2,0.1,0.3,0.1,0.5c0.1,0.3,0.2,0.6,0.2,1
		c0,0.1,0.1,0.3,0.1,0.4c0.1-0.2,0,0.3,0.1,0.3c0.2-0.1,0.5-0.3,0.7-0.4c0.1,0,0.2-0.1,0.2-0.1c0.1,0,0.2,0,0.3,0
		c0-0.1-0.1-0.2-0.1-0.3c0-0.1-0.1-0.1-0.1-0.1C24,6.8,23.9,6.8,23.9,6.8z"/>
	<path class="st0" d="M25.6,4C26,3.6,26.5,3.1,27,2.7c0.2-0.2,0.5-0.4,0.8-0.6c0.3-0.2,0.5-0.3,0.8-0.4c0.3-0.1,0.7-0.3,1-0.4
		c0.2-0.1,0.3-0.1,0.5-0.2c0.1,0,0.1,0,0.2,0c0.1,0,0.2,0,0.4,0c0.2,0,0.5,0.1,0.5,0.3c0,0.1,0,0.3,0,0.4S31,2,30.9,2.1
		c-0.3,0.1-0.6,0.1-0.9,0.1c-0.3,0-0.6,0.1-0.9,0.2c-0.6,0.2-1.1,0.5-1.6,0.9c-0.5,0.3-0.9,0.7-1.2,1.2c-0.2,0.2-0.3,0.5-0.4,0.8
		c-0.1,0.1-0.1,0.3-0.2,0.4c-0.1,0.1-0.1,0.2-0.1,0.3c0,0.1,0,0.1,0,0.2c0,0.1,0,0.1,0,0.2c0,0.1,0,0.1,0,0.2c0,0.1,0,0.1,0.1,0.2
		c0,0.1,0,0.2,0,0.3c0,0.1,0.1,0.1,0.1,0.2c0,0.1,0,0.2,0.1,0.2c-0.3,0-0.7-0.1-1-0.1c-0.1,0-0.2,0-0.3,0c-0.1,0-0.1,0-0.2,0
		c-0.1,0-0.2-0.1-0.3-0.2c-0.1-0.1,0-0.3,0.1-0.4c0.1-0.2,0.1-0.3,0.2-0.5c0.1-0.3,0.3-0.6,0.5-0.9C25,4.7,25.3,4.4,25.6,4z"/>
	<path class="st0" d="M26.6,6.4c0.3-0.2,0.6-0.4,0.9-0.5c0.2-0.1,0.3-0.2,0.5-0.3c0.2-0.1,0.3-0.2,0.5-0.3c0.3-0.2,0.7-0.3,1-0.4
		c0.4-0.1,0.7-0.2,1.1-0.3c0.4-0.1,0.7-0.1,1.1-0.1c0.2,0,0.4,0,0.5,0c0.2,0,0.3,0.1,0.5,0.1c0.3,0.1,0.6,0.2,0.9,0.3
		c0.3,0.1,0.5,0.3,0.5,0.6c0,0.1,0.4,0.8,0.3,1c-0.1,0.1-0.8,0.2-1-0.1c-0.2-0.2-0.3-0.3-0.5-0.5c-0.3-0.2-0.5-0.3-0.8-0.4
		c-0.3-0.1-0.6-0.1-0.9-0.1c-0.7,0-1.4,0.3-2,0.6c-0.6,0.3-1.3,0.6-1.8,1c-0.1,0.1-0.3,0.2-0.4,0.4c-0.1,0.1-0.2,0.2-0.3,0.3
		c-0.1,0-0.2,0-0.3,0c-0.1-0.1-0.1-0.2-0.2-0.3c-0.1-0.1-0.2-0.1-0.2-0.2c0-0.1,0.1-0.2,0.1-0.3c0-0.1,0.1-0.2,0.1-0.2
		c0.1-0.1,0.2-0.1,0.3-0.2C26.5,6.5,26.6,6.4,26.6,6.4z"/>
	<path class="st0" d="M27.5,8.8c0.7,1.7,0.1,3.6-1.3,4.3s-2.7-0.2-3.5-1.8c-0.7-1.7-0.6-3.4,0.8-4.2C25,6.4,26.8,7.1,27.5,8.8z"/>
</g>
<path class="st0" d="M15.4,25.3c0.2,0.1,0.6,0.3,0.8,0.3c0.4,0.1,0.8,0.3,1.2,0.4c0.8,0.3,1.6,0.5,2.3,0.9c0.3,0.1,0.6,0.3,0.8,0.5
	c0.2,0.2,0.3,0.4,0.3,0.6c0,0.3-0.1,0.6-0.2,0.9c-0.2,0.4-0.4,0.8-0.6,1.2c-0.3,0.5-0.7,1.1-1,1.6c-0.3,0.4-0.5,0.9-0.8,1.3
	c-0.2,0.2-0.3,0.5-0.5,0.7c-0.3,0.5-0.6,1-0.8,1.6c-0.1,0.4,0,0.8,0.1,1.1c0.4,0.7,1,1.2,1.7,1.6c0.6,0.4,1.3,0.8,1.8,1.5
	c0.1,0.2,0.3,0.5,0.2,0.7c0,0.3-0.1,0.6-0.3,0.8c-0.4,0.9-0.9,1.7-1.5,2.4c0,0.1-0.1,0.1-0.1,0.2c-0.3,0.3-0.6,0.6-1,0.6
	c-0.2,0-0.5,0.1-0.6,0c-0.1-0.1-0.1-0.3-0.1-0.4c0.1-0.2,0.2-0.4,0.3-0.6c0.2-0.3,0.3-0.5,0.5-0.8c0.2-0.3,0.4-0.5,0.5-0.7
	c0.1-0.2,0.3-0.4,0.4-0.6c0.1-0.2,0.1-0.4,0-0.7c-0.2-0.4-0.5-0.7-0.8-1c-0.7-0.6-1.4-1.1-2.1-1.7c-0.4-0.3-0.7-0.6-1.1-0.9
	c-0.2-0.2-0.5-0.5-0.5-0.9c-0.1-0.4,0-0.8,0.2-1.2c0.2-0.4,0.4-0.8,0.6-1.1c0.2-0.4,0.5-0.7,0.7-1.1c0.2-0.4,0.4-0.8,0.4-1.2
	c0-0.3,0-0.6-0.3-0.9c-0.2-0.2-0.5-0.4-0.8-0.5c-0.8-0.4-1.6-0.6-2.4-0.7c-0.3,0-0.6-0.1-0.9,0c-0.4,0-0.7,0.2-1,0.3
	c-0.8,0.4-1.6,0.8-2.3,1.5C8.4,31.4,8.2,31.7,8,32c-0.2,0.5,0,1.1,0.1,1.6c0.2,0.6,0.3,1.2,0.5,1.8c0.2,0.6,0.4,1.3,0.7,1.9
	c0.2,0.6,0.5,1.3,0.7,1.9c0.1,0.4,0.3,0.9,0.3,1.3c0,0.3,0,0.6-0.1,0.9c-0.1,0.3-0.3,0.6-0.6,0.8c-0.3,0.3-0.7,0.6-1.1,0.9
	c-0.2,0.2-0.4,0.4-0.7,0.5c-0.3,0.2-0.5,0.4-0.8,0.6c-0.2,0.1-0.4,0.3-0.6,0.1c-0.1,0-0.1-0.1-0.1-0.2c0-0.2,0-0.4,0.1-0.5
	c0.1-0.3,0.3-0.6,0.5-0.8c0.5-0.4,1.1-0.6,1.5-1c0.6-0.6,0.5-1.4,0.3-2.2c-0.3-1.1-0.9-2.2-1.4-3.2C7.3,36.2,7.2,36,7,35.7
	c-0.1-0.2-0.2-0.4-0.3-0.6c-0.2-0.4-0.4-0.7-0.6-1.1c-0.3-0.4-0.5-0.8-0.7-1.2C5.2,32.4,5,32,4.9,31.5c-0.1-0.4,0-0.7,0.1-1
	c0.2-0.4,0.6-0.6,0.9-0.9c0.7-0.5,1.5-1,2.2-1.4c0.9-0.5,1.8-1.1,2.7-1.6c0.5-0.3,0.9-0.5,1.4-0.7c0.4-0.2,0.7-0.5,1.1-0.7
	c0.3-0.2,0.5-0.3,0.9-0.3C14.6,24.9,15,25.1,15.4,25.3z"/>
<circle class="st0" cx="4.9" cy="22.5" r="2.6"/>
<text transform="matrix(1 0 0 1 39.4444 29.0642)" class="st1 st2 st3 st4">dimba</text>
<text transform="matrix(1 0 0 1 96.58 30.3648)" class="st5 st2 st3 st4">tIPS</text>
</svg>
